<?xml version="1.0" encoding="UTF-8"?>
<svg id="Layer_2" data-name="Layer 2" xmlns="http://www.w3.org/2000/svg" viewBox="0 0 381.84 382.99">
  <g id="Layer_1-2" data-name="Layer 1">
    <path d="M81.82.21c8.9,1.13,17.42,7.32,23.96,13.08,14.32,12.61,33.28,31.75,46.03,46.01,31,34.65,4.34,55.39-20.95,80.08-1.89,1.84-6.56,4.07-6.39,7.02.15,2.57,7.58,14.6,9.43,17.59,16.24,26.16,42.24,53.06,66.59,71.85,11.32,8.74,22.96,16.32,35.91,22.49,21.08-16.16,37.02-49.63,68.88-38.94,4.94,1.66,9.45,5.02,13.46,8.24,22.73,30.24,89.22,62.18,51.98,105.86-8.74,10.26-32.53,34.96-43.38,41.18-42.98,24.63-113.95-10.92-151.9-34.49C104.71,296.23,35.7,218,9.2,138.25-2.11,104.18-7,70.79,18.56,42.09,29.9,29.37,55.32,2.2,72.09.21c2.28-.27,7.47-.29,9.73,0ZM74.14,19.84c-1.65.25-5.04,1.59-6.58,2.4-5.96,3.11-35.15,32.63-39.63,38.94-23.06,32.43,8.25,96.94,26.07,127.31,34.67,59.08,87.97,111.49,147.84,144.76,28.81,16.02,90.47,45.27,120.21,21.88,5.7-4.49,10.35-11.1,15.37-16.06,11.39-11.24,34.24-25.79,20.94-44.05-17.98-15.44-34.55-38.25-52.71-52.8-5.09-4.08-9.23-5.82-15.92-4.68-10.29,1.75-31.58,29.63-41.37,37.21-6.71,5.2-11.61,5.53-19.35,2.17-41.19-17.89-95.83-71.87-116.88-111.36-5.68-10.66-12.82-21.78-3.33-32.54,8.48-9.61,32.52-27.66,36.26-38.57,3.2-9.35-2.01-15.46-7.82-22.07-11.76-13.38-31.48-33.32-44.92-44.88-5.29-4.55-10.73-8.8-18.17-7.66Z" style="fill: #093b76;"/>
  </g>
</svg>