<?xml version="1.0" encoding="UTF-8"?>
<svg id="Layer_2" data-name="Layer 2" xmlns="http://www.w3.org/2000/svg" viewBox="0 0 255.45 352.05">
  <g id="Layer_1-2" data-name="Layer 1">
    <g>
      <path d="M126.79.06c1.49-.2,2.25.11,3.58.58,4.07,1.42,23.07,21.36,27.31,25.89,63.06,67.39,138.82,187.17,71.39,275.57-51.93,68.08-155.59,66.22-205.26-3.44C-38.88,210.73,35.16,93.57,97.01,27.28c6.43-6.9,16.91-18.4,23.97-23.99,1.58-1.25,3.8-2.96,5.82-3.23ZM127.45,19.48c-16.58,16.18-32.21,33.47-46.43,51.77-46.82,60.25-96.54,154.76-39.36,224.53,43.96,53.64,128.24,53.73,172.12,0,57.18-70.01,7.39-164.59-39.68-224.95-4.79-6.14-43.23-51.95-46.65-51.35Z" style="fill: #093b76;"/>
      <path d="M89.31,306.44c-5.77,5.11-14.31-1.77-19.17-5.46-18.58-14.12-32.17-35.6-36.52-58.66-1.07-5.65-3.2-17.66-.38-22.43,3.61-6.11,13.12-4.08,14.33,2.45,1.03,5.52.75,11.75,1.89,17.61,3.31,17.05,13.18,33.68,26.25,44.95,5.3,4.57,23.37,12.87,13.6,21.54Z" style="fill: #093b76;"/>
    </g>
  </g>
</svg>