<?xml version="1.0" encoding="UTF-8"?>
<svg id="Layer_2" data-name="Layer 2" xmlns="http://www.w3.org/2000/svg" viewBox="0 0 321.55 322.51">
  <g id="Layer_1-2" data-name="Layer 1">
    <g>
      <path d="M126.72,17.61h68.42c2.41-5.58,5.22-11.54,11.02-14.44,5.25-2.63,27.56-2.73,34.08-1.92,8.89,1.1,15.94,8.88,16.91,17.56,2.22,20.05,2.02,70.36,0,90.63-2.23,22.31-25.62,21.74-43.14,19.8-10.97-1.21-16.36-8.08-19.61-17.85l-68.06-.15c-2.19,8.65-8.3,15.65-17.54,17.07-15.85,2.42-42.12,2.59-44.46-18.11-2.3-20.39-1.72-66.7,0-87.63.79-9.62,4.78-20,15.58-21.87,5.12-.89,25.26-.89,30.5-.11,8.21,1.22,14.99,9.02,16.3,17.04Z" style="fill: #093b76;"/>
      <path d="M319.12,319.88c-1.61,1.24-3.36,1.56-5.34,1.78-22.19,2.49-50.13-1.38-72.85-.73l-69.35-68.57c-41.7,9.99-82-21.72-79.45-65.08,2.37-40.23,31.47,9.58,44.01,16.69l25.21-5.25,6.38-26.29c-4.5-6.76-32.45-29.37-32.83-35.38-.46-7.14,10.19-8.18,15.36-8.54,43.72-3.01,76.13,37.27,65.96,79.29l103.94,103.67c1.52,2.7.94,6.16-1.03,8.4Z" style="fill: #093b76;"/>
      <path d="M269.82,112.03s.05-.96.05-1.12V18.46h45.38c3.31,0,4.57,3.71,4.91,6.33,1.86,14.13,1.87,66.8-.04,80.87-.28,2.05-1.66,6.37-4.12,6.37h-46.18Z" style="fill: #093b76;"/>
      <path d="M51.62,16.97v93.57H5.49c-2.07,0-3.84-3.67-4.14-5.6-1.84-11.78-1.76-69.65-.04-81.65.23-1.6,2.62-6.31,4.17-6.31h46.12Z" style="fill: #093b76;"/>
      <path d="M37.17,119.66c7.79-1.65,17.54,19.28,19.83,25.55,14.78,40.28-48.35,40.5-37.66,3.1,1.44-5.03,13.25-27.67,17.83-28.64Z" style="fill: #093b76;"/>
    </g>
  </g>
</svg>