<?xml version="1.0" encoding="UTF-8"?>
<svg id="Layer_2" data-name="Layer 2" xmlns="http://www.w3.org/2000/svg" viewBox="0 0 273.75 336.09">
  <g id="Layer_1-2" data-name="Layer 1">
    <g>
      <path d="M39,290.05c.4-2.59,3.89-8.68,5.69-10.79,8.57-10.06,25.12-10.33,37.09-13.89l26.25,29.13c3.81,3.18,6.75-2.12,10.45-2.58.82,4.23,4.9,9.56,5.67,13.47.33,1.69-.46,2.79-1.03,4.25-3.45,8.77-8.35,17.92-12.5,26.44h-37.88v-21.33c0-1.46-3.43-3.33-4.76-3.21-.96.08-4.24,2.73-4.24,3.21v21.33h-24.75v-46.04Z" style="fill: #093b76;"/>
      <path d="M234.75,336.09h-24.75v-21.33c0-.48-3.27-3.13-4.24-3.21-1.33-.11-4.76,1.75-4.76,3.21v21.33h-37.88c-4.22-8.46-9.09-17.68-12.5-26.44-.57-1.46-1.36-2.56-1.03-4.25.73-3.69,4.6-9.16,5.63-13.15,1.87-1.35,7.51,6.02,10.5,2.26l26.25-29.13c10.92,3.2,27.87,4.2,36.03,12.71,1.87,1.95,6.76,10.28,6.76,12.72v45.29Z" style="fill: #093b76;"/>
      <path d="M170.25,154.94v45.29c0,15.31-18.68,29.64-33.38,29.64s-33.37-14.3-33.37-29.64v-42.29c15.38,5.89,32.92,7.08,48.91,2.78,6.13-1.65,11.66-5.02,17.84-5.78Z" style="fill: #093b76;"/>
      <path d="M88.5,130.61c.5-3.02,4.56-8.43,7.24-9.99,6.18-3.62,11.8-.1,17.71-1.04,3.73-.6,10.36-5.19,14.97-6.76,10.27-3.5,28.78-5.75,38.82-1.66,20.86,8.49,19.48,38.97,16.14,57.29l-4.14-.04v-20.58c0-5.51-11.3-2.14-14.09-1.33-20.41,5.91-27.84,11.23-50.89,5.55-4.06-1-14.28-6.03-17-5.2-4.92,1.49-1.98,17.17-2.78,21.57l-5.99.76v-38.55Z" style="fill: #093b76;"/>
      <path d="M177,29.19c-2,2.53-4.39,4.91-6.74,7.11-2.56,2.4-12.83,10.39-13.37,12.89-.87,4.11,5.96,26.77,5.1,27.9l-25.12-13.52-25.12,13.52c-.88-1.12,5.92-23.78,5.12-27.89-.72-3.68-17.64-15.36-20.12-20.01,6.11-1.78,22.74-.89,27.43-3.7,3.26-1.95,9.89-21.17,12.33-25.5l13.06,25.5,27.43,3.7Z" style="fill: #093b76;"/>
      <path d="M60.75,87.58c-1.92,4.26-13.82,11.34-14.85,14.75-1.16,3.82,4.4,20.15,3.59,21.18l-19.12-9.78-18.37,9.78c-1.2-1.6,4.42-16.72,3.27-20.8-1.04-3.7-12.69-11.22-15.28-15.12l21.43-2.95,8.58-18.77c1.18-.92,7.86,17.27,10.09,18.74,3.9,2.59,15.64,1.65,20.66,2.97Z" style="fill: #093b76;"/>
      <path d="M273.75,87.58l-15.45,14.94,3.44,20.98-18.35-9.79-19.13,9.79,3.62-20.41-14.88-15.52c4.91-1.13,16.91-.49,20.65-2.97,2.04-1.35,8.85-19.7,10.09-18.74,1.58,3.59,6.07,16.86,8.59,18.75,3.22,2.42,16.8,1.89,21.42,2.96Z" style="fill: #093b76;"/>
      <path d="M159,232.79v10.85l-22.12,24.31-22.13-24.31v-10.85c14.55,7.6,29.7,7.6,44.25,0Z" style="fill: #093b76;"/>
      <path d="M164.03,251.6c1.33-.33,18.87,8.93,18.88,10l-20.52,23.4-18.38-11.42,20.02-21.98Z" style="fill: #093b76;"/>
      <path d="M108.56,251.61c1.12-.16,1.78.12,2.49.96l18.68,21.01-18.38,11.42-20.6-23.4c.02-1.02,16.74-9.84,17.8-10Z" style="fill: #093b76;"/>
      <path d="M152.25,336.09h-31.5l11.2-24.38c1.32-1.51,7.39-1.55,9.06-.71,1.51.75,10.26,21.77,11.24,25.09Z" style="fill: #093b76;"/>
      <polygon points="141.63 301.53 132.12 301.53 126.18 287.03 136.88 280.19 147.57 287.03 141.63 301.53" style="fill: #093b76;"/>
      <path d="M94.5,177.4v14.22c-13.06,1.08-13.4-14.81,0-14.22Z" style="fill: #093b76;"/>
      <path d="M179.25,191.62v-14.22c13.4-.59,13.06,15.3,0,14.22Z" style="fill: #093b76;"/>
    </g>
  </g>
</svg>