<?xml version="1.0" encoding="UTF-8"?>
<svg id="Layer_2" data-name="Layer 2" xmlns="http://www.w3.org/2000/svg" viewBox="0 0 319.15 271.69">
  <g id="Layer_1-2" data-name="Layer 1">
    <g>
      <path d="M244.93,111.58h59.51c1.65,0,7.04,2.3,8.56,3.42,6.77,5,8.04,15.17,3.37,21.98l-130.18,130.31c-11.16,10.11-27.96.99-26.52-13.8l39.61-94h-75.23c-.72,0-5.06-2.32-5.98-3-6.97-5.09-8.37-15.08-3.37-22.07L245.29,3.77c11.17-9.24,27.16-.31,25.87,13.89l-26.23,93.91Z" style="fill: #093b76;"/>
      <path d="M60.59.23l117.28-.11c19.01,3.81,17.81,29.8-1.51,32.04H62.74c-18.82-2.25-19.96-27.28-2.15-31.93Z" style="fill: #093b76;"/>
      <path d="M12.69,239.76l101.56-.11c18.35,4,17.64,29.75-1.51,32.04H14.84c-18.82-2.25-19.96-27.28-2.15-31.93Z" style="fill: #093b76;"/>
      <path d="M30.69,159.7c11.35-1.42,36.84-1.24,48.47-.24,20.57,1.77,22.62,27.58,2.9,32.15-16.36-1.01-34.75,1.57-50.87.1-20.18-1.84-20.42-29.51-.51-32.01Z" style="fill: #093b76;"/>
      <path d="M44.13,80.32h55.79c16.02,5.58,15.67,26.28-.63,31.22l-55.76-.29c-15.86-4.7-15.45-26.83.6-30.93Z" style="fill: #093b76;"/>
    </g>
  </g>
</svg>