<?xml version="1.0" encoding="UTF-8"?>
<svg id="Layer_2" data-name="Layer 2" xmlns="http://www.w3.org/2000/svg" xmlns:xlink="http://www.w3.org/1999/xlink" viewBox="0 0 240.39 340.51">
  <defs>
    <linearGradient id="linear-gradient" x1="205" y1="1.35" x2="17.46" y2="281.73" gradientUnits="userSpaceOnUse">
      <stop offset="0" stop-color="#0887c7"/>
      <stop offset=".8" stop-color="#093b76"/>
    </linearGradient>
  </defs>
  <g id="Layer_1-2" data-name="Layer 1">
    <path d="M131.71.02c-.65-.06-1.34.05-2,0h-20.63C43.75,6.22-10.12,69.65,1.61,135.76c8.91,50.22,55.56,124.05,85.64,165.86,7.07,9.82,21.67,31.16,30.82,37.71,2.76,1.98,2.97,1.25,5.34-.65,10.62-8.53,25.85-31.28,34.13-43.05,28.62-40.7,66.83-101.67,79.25-149.63C254.9,76.03,202.37,7.05,131.71.02ZM130.9,155.23c-55.92,13.82-68.71-71.37-15.3-77.17,49.82-5.41,60.12,66.09,15.3,77.17Z" style="fill: url(#linear-gradient);"/>
  </g>
</svg>