<?xml version="1.0" encoding="UTF-8"?>
<svg id="Layer_2" data-name="Layer 2" xmlns="http://www.w3.org/2000/svg" xmlns:xlink="http://www.w3.org/1999/xlink" viewBox="0 0 318.71 383.35">
  <defs>
    <linearGradient id="linear-gradient" x1="262.44" y1="64.65" x2="55" y2="272.19" gradientUnits="userSpaceOnUse">
      <stop offset="0" stop-color="#0887c7"/>
      <stop offset="1" stop-color="#093b76"/>
    </linearGradient>
  </defs>
  <g id="Layer_1-2" data-name="Layer 1">
    <g>
      <path d="M.6,145.22c0-5.56-.63-11.92.75-17.22,0,5.56.63,11.92-.75,17.22Z" style="fill: #003858;"/>
      <path d="M161.54,382.5c-.69.19-.98.87-2.63.85-1.53-.02-1.95-.69-2.61-.85h5.24Z" style="fill: #002342;"/>
      <path d="M316.46,104.45c-.31-15.7,1.49-34.26.06-49.46-.42-4.49-2.31-7.34-6.58-9.14-38.1-2.16-73.36-6.03-108.25-22-14.78-6.76-28.39-15.7-42.4-23.85h-5.24c-12.33,8.12-23.33,17.22-36.92,23.34-20,9.01-45.14,14.35-66.84,17.74-12.51,1.95-27.31,2.18-39.39,4.78-4.74,1.02-8.11,3.19-8.82,8.4-.1,24.6-.71,49.15-.73,73.75l-.75,17.22c-.02,25.12-1.33,50.19-.03,75.26,3.68,71.12,69.2,121.19,127.76,149.95,7.62,3.74,20.18,10.21,27.96,12.08,1.73.53,3.52.58,5.24,0,6.72-1.87,16.21-6.71,22.74-9.82,64.94-30.96,129.32-79.13,133.7-157.48,2.06-36.86-.79-73.96-1.52-110.75ZM298.51,218.19c-6.76,74.84-77.16,117.92-139.6,144.8-5.22-2.19-10.47-4.42-15.61-6.79-52.21-24.05-117.33-69.46-123.23-132.02-2.4-25.39-.28-51.7.02-77.06.33-27.63.62-55.14,1.04-82.79,28.28-4.3,56.89-7.35,84.24-16.07,10.38-3.31,22-8.08,31.48-13.44,7.33-4.14,13.12-9.62,20.44-13.76,14.66,8.95,29.46,17.74,45.43,24.21,30.05,12.19,61.89,17.43,94.31,18.35.39,19.08.25,38.22.71,57.3.78,32.03,3.67,65.17.77,97.27Z" style="fill: #093b76;"/>
      <path d="M285.08,138.82c-2.55-16.98.51-37.09-1.51-53.88-.41-3.4-2.63-6.26-5.46-8.02-10.66-1.91-21.49-2.54-32.14-4.54-25.41-4.75-49.59-13.85-72.47-25.59-4.88-2.51-10.43-7.55-16.06-7.14-4.36.32-18.92,10.22-24.58,12.88-29.21,13.67-61.58,18.15-93.11,23.66-6.48,3.75-4.58,11.69-4.71,18.12l-.75,17.96c-.08,34-2.41,69.73-.74,103.66,2.74,55.59,52.57,95.05,98.03,119.04,4.93,2.6,23.05,12.15,27.36,11.97,1.28-.05,4.76-1.2,6.11-1.73,32.87-13.06,77.76-43.44,98.47-72.17,29.98-41.58,19.89-85.96,21.55-134.22ZM239.24,151.88c-.42,3.52-2.87,7.56-5.17,10.2l-86.2,86.2c-7.36,6.74-17.77,6.91-25.4.48l-43.83-43.83c-14.87-17.9,8.06-41.01,26.05-26.37l30.24,30.24,74.06-74.07c10.36-9.19,28.51-2.31,30.25,11.33.16,1.29.16,4.52,0,5.82Z" style="fill: url(#linear-gradient);"/>
      <path d="M34.29,112.28c.01-5.81-.64-12.4.75-17.96-.12,5.85.72,12.38-.75,17.96Z" style="fill: #00496b;"/>
    </g>
  </g>
</svg>