<?xml version="1.0" encoding="UTF-8"?>
<svg id="Layer_2" data-name="Layer 2" xmlns="http://www.w3.org/2000/svg" viewBox="0 0 331.55 364.38">
  <g id="Layer_1-2" data-name="Layer 1">
    <g>
      <path d="M151.66,113.77c.82.84,2.04,19.52,2.66,23.16,9.08,53.33,54.44,93.63,107.94,98.66,3.39.32,13.43-1.66,13.05,3.39-.05,1.16-.91,2.13-1.98,2.45-2.74.82-10.47.45-14.06.91-61.58,7.91-106.52,57.53-106.83,119.98l-3.18,2.06-2.51-2.06c-.19-61.87-45.02-111.92-106.08-119.98-3.77-.5-11.82-.02-14.81-.91-1.07-.32-1.93-1.29-1.98-2.45-.38-5.05,9.66-3.07,13.05-3.39,61.22-5.77,103.35-51.91,109.66-111.91.3-2.86-.45-5.83.33-8.67.59-2.12,3.4-2.62,4.73-1.25Z" style="fill: #093b76;"/>
      <path d="M254.95,157.55c-1.11,1.29-3.92,1.17-4.68-.55-1.12-14.27-3.83-27.28-11.29-39.61-13.33-22.05-37.77-34.89-63.41-35.39-2.32-.6-2.58-4.06-.71-5.09,1.99-1.09,12.75-1.09,16.68-1.84,29.71-5.71,52.61-31.45,57.41-60.86.37-2.27.54-12.54,1.65-13.32,6.34-4.49,5.04,9.48,5.38,11.93,4.77,33.7,30.95,59.12,64.67,63.33,2.65.33,10.53-1.2,10.89,2.65.44,4.7-9.59,3.59-13.06,4.19-29.94,5.14-56.2,27.45-61.62,58.14-.57,3.2-.93,15.29-1.9,16.43Z" style="fill: #093b76;"/>
      <path d="M50.57,74.77c5.22-1.44,3.6,5.67,4.05,8.41,3.22,19.7,16.59,35.13,36.44,39.16,4.52.92,13.66-.51,11.02,5.47-2.4,2.44-5.98,1.03-8.92,1.56-17.85,3.2-33.83,16.86-37.67,34.94-.73,3.44-.02,12.6-3.61,12.92-4.72-.21-2.87-4.67-3.42-7.8-3.64-21.1-17.17-36.24-38.67-39.93-2.25-.39-10.1.64-9.78-3.44.3-3.82,8.71-3.02,12.03-3.71,20.11-4.22,32.77-19.53,36.3-39.3.45-2.54-.74-7.48,2.23-8.3Z" style="fill: #093b76;"/>
    </g>
  </g>
</svg>