<?xml version="1.0" encoding="UTF-8"?>
<svg id="Layer_2" data-name="Layer 2" xmlns="http://www.w3.org/2000/svg" viewBox="0 0 384 206.91">
  <g id="Layer_1-2" data-name="Layer 1">
    <g>
      <path d="M384,114.54v51.65c-5.37,16.34-23.2,8.51-36.04,10.81-2.89,11.99-10.44,22.72-22.18,27.27-22.5,8.72-44.32-5.15-49.52-27.63h-92.92s-2.23.76-2.23.76c-8.14,39.35-62.91,38.7-70.81-.41l-36.26-.49c-4.36-.87-10.29-7.11-10.29-11.43v-28.82H18.38c-4.11,0-6.92-10.73.79-11.93,24.64,1.58,52.2-2.25,76.49-.08,10.04.9,6.1,12.01,2.21,12.01h-22.12v27.32l1.12,1.12h34.12c6.19-38.93,63.22-39.14,69.78-.03l94.13.07,2.23-.77c7.9-38.44,63.37-37.9,70.11.73h23.62l1.12-1.12v-47.91c0-6.29-7.69-13.94-11.99-17.98-27.83-26.1-61.16-54.28-90.75-78.6-3.02-2.48-6.04-5.03-9.39-7.1H76.88l-1.12,1.12v17.59h16.12c3.21,0,7.8,11.06-4.47,12.01-15.23,1.18-32.31-.68-47.71-.35-7.91-1.87-4.91-11.65-1.07-11.65h25.12V11.62c0-4.65,6.65-11.42,11.61-11.62l186.43.36c4.57,1.05,7.96,3.61,11.57,6.42,35.06,27.29,68,61.06,102.38,89.44l3.91,5.83,4.36,12.49ZM140.82,147.68c-21.51,3.12-25.94,34.79-6.07,44.59,20.66,10.18,42.55-11.39,32.63-31.82-4.94-10.17-15.66-14.35-26.56-12.77ZM306.55,147.66c-24.09,4.05-24.3,43.5,1.39,46.92,37.54,4.99,37.01-53.37-1.39-46.92Z" style="fill: #093b76;"/>
      <path d="M0,69.63v-3.74c2.13-3.23,4.05-4.09,7.89-4.48,9.94-1,30.49-.92,40.52-.04,10.54.92,10.2,11.19,2.98,12.02-14.39,1.67-31.82-1.3-46.55.02-2.53.09-3.31-2.29-4.84-3.78Z" style="fill: #093b76;"/>
      <path d="M237.54,20.39c2.39-.55,12.98-.53,15.55-.12,2.05.33,4.36,2.44,6.02,3.72,26.86,20.62,51.45,46.86,78.33,67.78,4.63,4.7,1.27,10.62-4.78,10.83-29.71-2.11-63.05,2.69-92.32,0-5.63-.52-6.67-3.39-7.12-8.62-1.79-21.07,1.42-44.59,0-65.93.26-2.94.97-6.9,4.32-7.67ZM317.25,90.59l-67.89-58.37-4.11-.02v57.26l1.12,1.12h70.88Z" style="fill: #093b76;"/>
      <path d="M75.75,92.84h17.62c1.8,0,4.91,4.24,4.92,6.36,0,1.96-2.41,5.61-4.17,5.61h-18.38c3.17,18.2-14.85,17.62-12,0h-15.38c-.24,0-3.01-2.84-3.22-3.52-1.05-3.47.86-8.46,4.72-8.46h13.88l.16-38.39c1.61-7.2,11.84-4.78,11.84-.91v39.3Z" style="fill: #093b76;"/>
      <path d="M115.5,30.71v11.6c0,3.68-9.69,7.17-11.64-.35-.74-2.86-.79-14.52-.31-17.57.38-2.43,2.27-4.31,4.42-5.32h35.33c6.57,1.99,4.06,11.64.34,11.64h-28.12Z" style="fill: #093b76;"/>
      <path d="M205.5,89.1c-2.79-10.07,10.87-13.95,12.01-4.14.5,4.33,1.27,15.06-4.16,16.09-4.37.83-29.76.69-34.44-.03-6.57-1.01-6.54-10.42.88-11.76,4.1-.74,24.81.75,25.7-.17Z" style="fill: #093b76;"/>
      <path d="M158.05,18.91c5.81-1.04,34.35-1.07,40.28-.14,6.67,1.05,7.46,10.45.74,11.89-12.54-1.27-29.11,1.89-41.16,0-6.39-1-7.02-10.48.13-11.75Z" style="fill: #093b76;"/>
      <path d="M148.3,89.27c3.19-.57,12.65-.6,15.4.74,5.1,2.49,4.26,10.12-.6,11.04-2.28.43-14.83.32-16.89-.32-5.48-1.7-4.46-10.29,2.09-11.46Z" style="fill: #093b76;"/>
      <path d="M143.8,161.12c10.51-2.15,17,12.68,7.21,18.43-13.61,7.99-22.03-15.39-7.21-18.43Z" style="fill: #093b76;"/>
      <path d="M310.31,161.11c10.99-1.82,16.53,12.96,7.2,18.44-13.81,8.12-22.16-15.97-7.2-18.44Z" style="fill: #093b76;"/>
    </g>
  </g>
</svg>